<?xml version="1.0" encoding="UTF-8" standalone="no"?>
<!-- Uploaded to: SVG Repo, www.svgrepo.com, Generator: SVG Repo Mixer Tools -->

<svg
   height="800px"
   width="800px"
   version="1.1"
   id="Layer_1"
   viewBox="0 0 512 512"
   xml:space="preserve"
   sodipodi:docname="slimok.svg"
   inkscape:version="1.4 (86a8ad7, 2024-10-11)"
   xmlns:inkscape="http://www.inkscape.org/namespaces/inkscape"
   xmlns:sodipodi="http://sodipodi.sourceforge.net/DTD/sodipodi-0.dtd"
   xmlns="http://www.w3.org/2000/svg"
   xmlns:svg="http://www.w3.org/2000/svg"><defs
   id="defs3"><inkscape:perspective
     sodipodi:type="inkscape:persp3d"
     inkscape:vp_x="0 : 256 : 1"
     inkscape:vp_y="0 : 1000 : 0"
     inkscape:vp_z="512 : 256 : 1"
     inkscape:persp3d-origin="256 : 170.66667 : 1"
     id="perspective4" /></defs><sodipodi:namedview
   id="namedview3"
   pagecolor="#ffffff"
   bordercolor="#000000"
   borderopacity="0.25"
   inkscape:showpageshadow="2"
   inkscape:pageopacity="0.0"
   inkscape:pagecheckerboard="0"
   inkscape:deskcolor="#d1d1d1"
   inkscape:zoom="1.01875"
   inkscape:cx="400"
   inkscape:cy="400"
   inkscape:window-width="1920"
   inkscape:window-height="1017"
   inkscape:window-x="-8"
   inkscape:window-y="-8"
   inkscape:window-maximized="1"
   inkscape:current-layer="Layer_1" />
<path
   style="fill:#8dd35f"
   d="M512,256.006C512,397.402,397.394,512.004,256.004,512C114.606,512.004,0,397.402,0,256.006  C-0.007,114.61,114.606,0,256.004,0C397.394,0,512,114.614,512,256.006z"
   id="path1" />
<path
   style="fill:#71c837"
   d="M507.376,304.377c-0.017-0.016-0.032-0.034-0.049-0.049c-0.47-0.526-102.157-102.211-102.681-102.681  c-3.519-3.926-8.572-6.447-14.246-6.447c-10.125,0-18.356,7.902-19.063,17.851c-0.339-0.353-10.967-10.933-11.493-11.405  c-3.517-3.925-8.57-6.446-14.243-6.446c-10.588,0-19.2,8.612-19.2,19.2c0,6.27,3.043,11.801,7.715,15.285  c0.515,0.48,4.859,4.903,5.085,5.095v17.249c-0.411-0.415-57.293-57.285-57.798-57.78c-17.199-17.46-41.451-31.05-75.398-31.05  c-57.129,0-103.603,46.172-103.603,102.928c0,23.119,9.644,44.021,25.115,59.037c0.491,0.5,179.559,179.573,180.063,180.063  c0.423,0.432,0.85,0.859,1.281,1.281C409.309,485.424,488.041,405.465,507.376,304.377z"
   id="path2" />
<path
   style="fill:#F4F6F9;"
   d="M409.6,214.4c0-10.588-8.612-19.2-19.2-19.2s-19.2,8.612-19.2,19.2c0,8.333,5.366,15.37,12.8,18.02  v11.029c-3.927-2.161-8.551-3.45-13.825-3.45c-6.301,0-12.775,1.907-18.175,5.277v-12.855c7.434-2.651,12.8-9.689,12.8-18.02  c0-10.588-8.612-19.2-19.2-19.2c-10.588,0-19.2,8.612-19.2,19.2c0,8.333,5.366,15.37,12.8,18.02V265.6h0.055  c-0.012,0.299-0.055,0.586-0.055,0.887v21.6c0,0.873-0.112,1.75-0.189,2.627c-10.394-3.458-18.227-24.654-24.605-41.946l-0.612-1.66  c-11.579-31.338-40.975-83.909-107.791-83.909c-57.129,0-103.603,46.172-103.603,102.928c0,45.532,37.294,82.578,83.161,82.665  c0.014,0,0.026,0.007,0.039,0.007h138.547c40.74,0,72.653-32.46,72.653-73.9v-8.413c0-0.308-0.069-0.583-0.078-0.887h0.078v-33.18  C404.234,229.771,409.6,222.733,409.6,214.4z M345.6,208c3.529,0,6.4,2.871,6.4,6.4s-2.871,6.4-6.4,6.4c-3.529,0-6.4-2.871-6.4-6.4  S342.071,208,345.6,208z M225.276,336c17.148-12.327,28.374-32.378,28.374-55.041c0-30.631-24.954-55.55-55.625-55.55  c-25.244,0-45.781,20.51-45.781,45.722c0,21.381,15.603,37.506,36.29,37.506c9.038,0,18.297-5.943,22.013-14.134  c2.188-4.816,4.366-14.597-5.61-26.006c-2.319-2.656-6.369-2.928-9.031-0.606c-2.662,2.329-2.931,6.372-0.606,9.031  c4.006,4.581,5.216,8.719,3.594,12.29c-1.859,4.091-6.825,6.625-10.359,6.625c-13.613,0-23.49-10.39-23.49-24.706  c0-18.154,14.794-32.922,32.981-32.922c23.613,0,42.825,19.178,42.825,42.75c0,30.35-24.732,55.041-55.132,55.041  c-38.884,0-70.518-31.344-70.518-69.872c0-49.697,40.734-90.128,90.803-90.128c59.056,0,85.362,47.331,95.785,75.547l0.609,1.653  c7.803,21.147,16.576,44.797,33.114,49.804C326.898,320.743,303.601,336,272.131,336H225.276z M384,274.9  c0,34.262-26.29,61.1-59.853,61.1h-3.625C339.525,324.784,352,307.307,352,288.087v-21.6c0-7.835,9.597-13.687,18.803-13.687  c8.141,0,13.197,5.244,13.197,13.687V274.9z M390.4,220.8c-3.529,0-6.4-2.871-6.4-6.4s2.871-6.4,6.4-6.4c3.529,0,6.4,2.871,6.4,6.4  S393.929,220.8,390.4,220.8z"
   id="path3" />
<path
   style="fill:#e6e6e6;stroke-width:0.981595"
   d="m 271.76687,543.24228 c -20.97789,-3.08126 -43.25232,-12.42298 -60.23313,-25.26132 -15.17526,-11.47325 -31.5018,-31.67775 -39.13796,-48.4342 -8.13623,-17.85377 -11.49044,-33.86918 -11.48192,-54.82283 0.0307,-75.32169 53.61158,-140.07521 129.14749,-156.07706 12.65119,-2.68008 37.33823,-3.65016 51.54795,-2.02558 50.87605,5.8166 91.03129,31.30956 121.6036,77.20127 10.39956,15.61065 19.29764,33.52533 27.99431,56.36149 15.99274,41.9945 24.67406,57.59104 34.98387,62.85071 l 3.87027,1.97447 v -46.13497 -46.13497 l -3.79148,-1.93427 c -5.79184,-2.95478 -12.29691,-10.79886 -14.33869,-17.29019 -5.73367,-18.22886 8.45385,-37.74796 27.43724,-37.74796 9.11003,0 14.808,2.36299 21.12723,8.76162 6.92746,7.0145 9.2807,13.15889 8.61313,22.48912 -0.73006,10.20361 -5.60929,18.07742 -14.21008,22.93141 l -5.20545,2.93777 v 10.21305 c 0,5.61718 0.15977,10.21304 0.35502,10.21304 0.19527,0 3.18356,-1.28251 6.64066,-2.85004 12.35864,-5.60367 26.0228,-6.38678 37.21513,-2.13284 2.94786,1.1204 5.69103,2.03733 6.09594,2.03761 0.40491,2.6e-4 0.7362,-3.8653 0.7362,-8.59016 v -8.59063 l -4.43449,-2.35249 c -21.43482,-11.37115 -20.58797,-41.29398 1.4897,-52.63726 1.94268,-0.99813 6.42139,-1.95172 10.30675,-2.19449 8.77714,-0.54841 16.0095,2.00476 22.00901,7.76962 14.3375,13.77677 11.15157,37.81142 -6.23474,47.03484 l -4.48593,2.37978 v 38.35632 c 0,42.2086 -0.65718,49.43979 -5.94589,65.42374 -5.48355,16.5728 -13.53131,29.93252 -25.60994,42.51392 -13.52534,14.08829 -27.49397,23.13081 -44.52209,28.82113 -18.46078,6.16907 -14.36408,6.00444 -146.13655,5.87285 -65.92928,-0.0658 -122.3616,-0.48545 -125.40516,-0.9325 z m 39.88957,-20.52847 c 30.3484,-7.76347 54.27764,-31.6638 62.42115,-62.34571 2.53936,-9.56745 3.07567,-28.50449 1.04248,-36.80982 -0.72691,-2.96932 -3.29984,-9.53235 -5.71762,-14.5845 -14.96341,-31.26732 -54.04989,-45.91579 -83.75828,-31.39014 -18.29207,8.94373 -30.5912,31.74015 -27.77285,51.47693 2.48445,17.39855 13.27553,29.54527 29.11692,32.77479 7.50821,1.53067 13.25736,0.59156 18.17159,-2.9683 9.06088,-6.56366 9.27735,-14.93543 0.68312,-26.41973 -3.49037,-4.66412 -3.37154,-9.18019 0.33921,-12.89093 4.44187,-4.44188 9.08841,-4.03301 14.10563,1.2412 2.15062,2.26076 5.46874,7.39227 7.37358,11.40335 4.54333,9.56695 4.84214,18.3748 0.91444,26.95403 -3.52024,7.68924 -10.46455,14.80334 -18.13701,18.58048 -15.88169,7.81853 -39.71348,2.87403 -54.16049,-11.23694 -19.38313,-18.93229 -23.24186,-47.10368 -10.17987,-74.32005 3.81502,-7.94908 5.76057,-10.59403 13.44537,-18.27883 7.6848,-7.6848 10.32975,-9.63035 18.27884,-13.44537 11.08097,-5.3181 20.49517,-7.57083 31.6387,-7.57083 24.2389,0 46.37895,9.74347 63.14756,27.79019 15.2739,16.43809 22.97391,36.18964 22.97391,58.93115 0,31.43101 -13.9631,60.21188 -39.7546,81.94258 l -4.90797,4.13522 46.13496,-0.37992 c 41.78986,-0.34415 47.01324,-0.5679 55.46013,-2.37564 23.95034,-5.12569 42.5497,-14.50945 56.9942,-28.75472 6.40052,-6.31225 14.66224,-17.58702 14.66224,-20.00957 0,-0.61365 -2.45845,-2.32146 -5.46321,-3.79513 -15.74511,-7.72213 -26.87867,-25.41425 -43.66425,-69.386 -15.42099,-40.39705 -29.03458,-63.23457 -50.18328,-84.18511 -12.72631,-12.60705 -22.72236,-19.84335 -37.62178,-27.23499 -21.70266,-10.76675 -38.8154,-14.58106 -65.27607,-14.54956 -18.93408,0.0225 -29.87901,1.72834 -46.33413,7.22133 -46.62921,15.5656 -82.85887,56.28426 -93.02208,104.54787 -2.67536,12.70491 -3.62685,32.8826 -2.05691,43.61951 7.29199,49.87022 46.08776,87.93189 96.10983,94.29124 9.7237,1.23617 26.03581,0.31418 34.99654,-1.97808 z m 218.6441,-0.41679 c 28.5888,-7.25214 51.73927,-27.72551 63.03953,-55.74968 5.26917,-13.06731 6.83271,-22.40228 6.87155,-41.02587 0.0354,-16.9524 -0.49873,-19.49025 -5.23797,-24.88973 -7.44673,-8.48416 -27.1904,-7.55294 -38.1145,1.79769 -6.81656,5.83473 -7.1659,7.35826 -7.1659,31.2522 0,14.28138 -0.45644,23.50059 -1.41034,28.48619 -4.35925,22.78375 -18.68301,42.88362 -41.69788,58.51272 -3.28435,2.23035 -5.97153,4.32671 -5.97153,4.65858 0,1.34275 20.80633,-0.78932 29.68704,-3.0421 z m 16.78103,-179.83035 c 6.65369,-6.65369 1.97532,-18.06106 -7.40092,-18.04582 -6.35866,0.0103 -11.22885,6.81945 -9.47549,13.24786 1.97944,7.25728 11.66382,10.01055 16.87641,4.79796 z m 68.43292,1.55331 c 1.03868,-0.55588 2.55565,-2.30082 3.37106,-3.87763 2.31202,-4.47096 1.86072,-8.39978 -1.38172,-12.0287 -2.4591,-2.75222 -3.51188,-3.20567 -7.44248,-3.20567 -3.9306,0 -4.98338,0.45345 -7.44248,3.20567 -6.14434,6.87671 -2.025,16.91702 6.94071,16.91702 2.23652,0 4.91624,-0.45481 5.95491,-1.01069 z"
   id="path4"
   transform="scale(0.64)" /></svg>
